<svg width="512" height="512" viewBox="0 0 512 512" fill="none" xmlns="http://www.w3.org/2000/svg">
<path d="M512 221.949L182.103 13L173.867 26.0025C160.274 47.4648 166.652 75.8833 188.115 89.477L440.29 249.199C461.752 262.793 490.171 256.414 503.764 234.952L512 221.949Z" fill="url(#paint0_linear)"/>
<path d="M78.5184 399.188C82.1737 399.962 86.3931 401.015 91.0188 402.352C112.399 446.687 151.886 488.645 177.791 496.984C177.572 496.987 177.35 496.987 177.125 496.986C187.933 500.597 213.346 500.256 228.536 470.009C233.646 457.462 236.184 425.233 205.459 396.689C195.517 387.345 168.451 365.701 139.718 353.874C130.727 339.33 118.034 308.994 139.19 304.006C144.693 302.708 152.133 303.338 160.591 305.387C185.399 357.815 222.046 393.543 247.549 400.859C247.126 400.872 246.692 400.877 246.247 400.874C257.097 404.751 282.595 404.944 297.785 374.696C307.207 352.322 302.432 298.049 207.958 259.949C198.714 243.807 185.557 211.58 206.884 211.805C216.695 211.909 230.79 214.55 245.869 219.517C244.731 282.961 290.288 306.005 316.411 309.674C316.898 309.743 317.389 309.764 317.877 309.74C334.147 311.11 364.383 304.38 367.868 266.558C369.43 248.841 356.688 205.275 293.231 172.744C259.753 155.254 184.334 132.506 150.484 181.432C143.873 190.531 132.201 215.936 138.404 244.761C110.864 246.666 58.9627 268.48 71.6787 340.493C44.8108 341.473 -6.98303 359.83 0.785061 425.421C2.71063 436.717 9.97843 464.336 23.6451 484.445L71.5645 453.517C60.2443 433.746 45.7867 395.201 78.5184 399.188Z" fill="url(#paint1_linear)"/>
<defs>
<linearGradient id="paint0_linear" x1="-0.190446" y1="13" x2="582.585" y2="481.965" gradientUnits="userSpaceOnUse">
<stop offset="0.321454" stop-color="#DE6C5E"/>
<stop offset="0.454189" stop-color="#57A772"/>
<stop offset="0.615821" stop-color="#33BBFC"/>
</linearGradient>
<linearGradient id="paint1_linear" x1="-0.190446" y1="13" x2="582.585" y2="481.965" gradientUnits="userSpaceOnUse">
<stop offset="0.321454" stop-color="#DE6C5E"/>
<stop offset="0.454189" stop-color="#57A772"/>
<stop offset="0.615821" stop-color="#33BBFC"/>
</linearGradient>
</defs>
</svg>
