<svg fill="none" height="512" viewBox="0 0 2276 512" width="2276" xmlns="http://www.w3.org/2000/svg" xmlns:xlink="http://www.w3.org/1999/xlink"><linearGradient id="a"><stop offset=".321454" stop-color="#de6c5e"/><stop offset=".454189" stop-color="#57a772"/><stop offset=".615821" stop-color="#33bbfc"/></linearGradient><linearGradient id="b" gradientUnits="userSpaceOnUse" x1="559.362" x2="740.689" xlink:href="#a" y1="186" y2="928.049"/><linearGradient id="c" gradientUnits="userSpaceOnUse" x1="-.190446" x2="582.585" xlink:href="#a" y1="20" y2="488.965"/><clipPath id="d"><path d="m0 0h512v512h-512z"/></clipPath><g fill="url(#b)"><path d="m630.226 438.19c16.596 0 33.192-5.593 46.992-17.127 13.626-11.535 23.758-30.235 23.758-51.731 0-20.623-8.559-38.624-19.39-50.858-11.006-12.408-23.409-20.098-33.891-27.089-10.656-6.816-19.39-12.758-24.107-17.652-4.717-4.893-5.94-9.961-5.94-16.428 0-12.933 6.464-20.098 15.548-20.098 11.53 0 15.548 10.836 15.548 10.836 3.843 9.961 13.451 16.253 23.583 16.253 3.319 0 6.638-.699 9.957-2.097 9.783-4.02 15.723-13.632 15.723-23.769 0-3.32-.699-6.641-1.922-9.961 0 0-19.391-42.469-64.287-42.469-15.897 0-30.745 6.292-43.498 18.875-12.752 12.583-21.836 32.157-21.836 55.401 0 19.924 9.084 37.401 20.089 48.761 10.831 11.534 23.06 18.7 33.192 25.341 10.307 6.641 18.692 12.758 23.408 18.001 4.717 5.418 6.639 10.311 6.639 17.652 0 9.437-7.512 16.777-19.042 16.777-9.608 0-18.168-3.67-19.565-13.282-2.271-12.758-12.927-21.671-25.331-21.671-1.572 0-2.969.174-4.367.349-12.578 2.097-21.487 12.933-21.487 25.167 0 1.573.175 3.146.524 4.719 0 0 2.446 14.505 12.403 28.137 9.783 13.632 30.397 27.963 57.299 27.963zm-51.01-193.468h-.349c-1.223-.35-2.097-1.398-2.097-2.447l.175-.699c5.241-25.865 23.059-47.187 45.769-49.11h.35c1.223 0 2.271 1.049 2.446 2.447 0 1.398-1.049 2.447-2.446 2.622-19.74 1.747-36.161 20.797-41.227 45.09-.175 1.223-1.398 2.097-2.621 2.097zm-4.367 22.895h-.35c-1.397-.175-2.445-1.224-2.445-2.447l.174-.35c.525-4.019 1.398-8.214 2.097-12.233.349-1.224 1.397-2.098 2.445-2.098 1.398 0 2.621 1.049 2.621 2.622v.524c-.874 3.845-1.572 8.039-2.096 11.71-.175 1.398-1.223 2.272-2.446 2.272zm75.816 121.638c-.873 0-1.572-.349-2.096-1.049-.35-.524-.524-1.048-.524-1.572 0-.7.349-1.573 1.048-2.098 4.018-2.796 5.939-6.466 6.988-10.661.174-1.572.349-3.145.349-4.718 0-2.447-.349-4.894-.873-6.991l-.175-.699c0-1.398 1.048-2.622 2.62-2.622 1.223 0 2.271.874 2.621 1.923.524 2.447 1.048 5.068 1.048 7.864 0 2.098-.175 4.37-.699 6.467-1.048 5.068-3.843 10.136-8.909 13.632-.524.349-1.048.524-1.398.524zm-79.659 1.573c-.874 0-1.922-.699-2.271-1.573-1.223-3.146-2.097-6.816-2.097-10.661 0-1.223.175-2.447.35-3.67.524-5.068 2.795-10.311 7.511-14.331.525-.524 1.049-.699 1.747-.699 1.398.175 2.446 1.398 2.446 2.622 0 .699-.349 1.398-.873 1.922-3.669 3.146-5.241 6.991-5.765 11.185l-.35 2.796c0 3.321.699 6.292 1.747 8.914l.175 1.048c0 .874-.699 1.923-1.572 2.272z"/><path d="m759.324 505.126 2.795-.175c13.102-1.223 22.884-12.408 22.884-25.341l-.174-3.146c-1.398-13.107-2.271-27.788-2.97-43.517 6.638 2.971 14.15 4.719 22.71 4.719 19.915 0 38.782-10.661 50.311-26.565 11.355-15.904 16.771-35.827 16.771-58.722v-1.049c0-33.38-6.988-65.887-33.716-85.286-9.084-6.641-20.963-10.312-33.017-10.312l-3.843.175c-4.367.35-8.735 1.224-13.102 2.622-3.668 1.048-7.162 2.446-10.656 4.194-4.717-4.719-11.006-7.34-17.819-7.34h-1.048c-13.102.524-23.758 10.835-24.631 23.943-2.621 34.255-4.193 71.305-4.193 106.783 0 34.604 1.398 67.635 4.367 95.773 1.223 13.282 12.229 23.244 25.331 23.244zm24.457-233.315c-.874 0-1.747-.349-2.271-1.049-.175-.349-.35-.873-.35-1.398 0-.874.524-1.747 1.223-2.272 4.542-2.971 11.704-5.592 19.041-6.291h2.621c1.397 0 2.97.174 4.367.349 1.223.175 2.271 1.224 2.271 2.447l-.175.524c-.174 1.224-1.222 2.097-2.62 2.097h-.349c-1.049-.174-2.097-.174-3.145-.174-6.813 0-15.198 2.796-19.216 5.418-.349.349-.873.349-1.397.349zm-43.848 54.877c-1.223 0-2.446-1.048-2.446-2.272v-.349c.35-21.322.699-34.08 2.97-42.818 2.271-8.564 6.988-12.933 14.15-15.555.349-.175.699-.175.873-.175 1.747 0 2.621 1.224 2.621 2.622 0 .874-.524 1.922-1.747 2.272-6.289 2.447-9.084 4.719-11.006 12.234-1.921 7.515-2.445 20.098-2.795 41.42 0 1.573-1.223 2.621-2.62 2.621zm62.015 59.771c-12.752 0-17.469-15.38-19.216-25.516-.349-1.573-.873-2.971-1.397-4.195.175-12.059.699-24.118 1.223-35.827 2.969-7.34 8.385-14.506 16.421-14.506 9.084 0 21.487 11.01 21.487 41.944 0 28.313-9.084 38.1-18.518 38.1zm-63.587-36.177c-1.398-.175-2.446-1.398-2.446-2.796l.873-12.059c0-1.224 1.049-2.272 2.446-2.447 1.572 0 2.62 1.048 2.62 2.447l-.698 12.408c-.175 1.398-1.398 2.447-2.795 2.447zm73.545 47.711c-.699 0-1.572-.524-2.096-1.223-.35-.524-.524-1.049-.524-1.398 0-.874.524-1.748 1.222-2.097 7.163-4.719 13.801-16.603 15.199-23.244.349-1.224 1.397-2.098 2.445-2.098 1.573 0 2.795 1.224 2.795 2.622l-.174.524c-1.922 8.389-8.386 20.448-17.47 26.39-.349.35-.873.524-1.397.524z"/><path d="m929.474 437.666c13.626-.874 24.107-12.059 24.107-25.342l-.174-1.922c-.699-12.059-1.223-30.41-1.223-49.809l.174-19.574c2.446-4.02 6.464-10.136 10.831-16.253 4.542-6.117 11.181-15.38 17.994-15.38 1.921 0 3.319 1.049 4.192 2.971 4.018 8.564 12.927 13.807 22.365 13.807 3.66 0 7.33-.874 11-2.447 9.43-4.544 14.85-14.331 14.85-23.943 0-3.67-.87-7.34-2.45-10.486-9.6-19.05-28.3-30.41-52.403-30.41-10.831 0-20.264 3.496-27.776 7.865-4.717-6.991-12.753-11.185-21.313-11.185-13.102 0-24.107 9.961-25.33 23.069-2.446 21.496-3.494 51.906-3.494 80.218 0 20.798.524 40.372 1.398 54.703.699 13.632 12.053 24.118 25.679 24.118zm36.51-164.107c-.873 0-1.747-.525-2.271-1.398l-.349-1.224c0-.874.524-1.922 1.397-2.272 5.067-2.796 10.831-5.068 16.946-5.068h1.921c2.446.175 4.717.699 7.163 1.573 1.048.349 1.747 1.223 1.747 2.272l-.175 1.048c-.35 1.049-1.223 1.573-2.271 1.573l-1.223-.174c-2.271-.874-4.717-1.224-6.988-1.224-5.066 0-9.957 1.923-14.674 4.544zm-51.883 53.304c-1.398 0-2.446-1.223-2.446-2.622.349-21.321.874-34.079 2.97-42.818 2.271-8.563 6.988-12.933 14.15-15.554.349-.175.699-.175 1.048-.175 1.572 0 2.62 1.224 2.62 2.622 0 .874-.524 1.922-1.746 2.272-6.464 2.446-9.084 4.718-11.006 12.233s-2.446 20.099-2.97 41.42c0 1.573-1.048 2.622-2.62 2.622zm-1.572 23.594c-1.223-.175-2.271-1.224-2.271-2.622v-.175c.174-4.544.349-6.816.698-12.059.175-1.223 1.223-2.272 2.446-2.446 1.572 0 2.795 1.223 2.795 2.796-.524 5.243-.524 7.515-.873 12.059-.175 1.398-1.398 2.447-2.795 2.447z"/><path d="m1085.3 237.906c14.15 0 25.68-11.535 25.68-25.691s-11.53-25.516-25.68-25.516-25.51 11.36-25.51 25.516 11.36 25.691 25.51 25.691zm-17.82-31.109-1.05-.174c-.87-.35-1.4-1.399-1.4-2.272l.18-1.049c1.75-4.194 4.72-8.564 9.96-10.311l.7-.175c1.74 0 2.79 1.223 2.79 2.621 0 1.049-.52 2.098-1.92 2.447-3.49 1.049-5.42 3.845-6.81 7.34-.35.874-1.4 1.573-2.45 1.573zm20.26 230.869c13.81-.699 24.29-12.059 24.29-25.342l-.18-1.922c-1.05-20.098-1.74-42.469-1.74-65.188 0-20.973.52-42.12 1.74-61.519l.18-2.097c0-14.156-11.53-25.516-25.68-25.516h-1.23c-13.27.524-23.75 11.01-24.45 24.118-1.23 20.972-1.92 43.168-1.92 65.188 0 23.594.69 46.838 1.92 67.985.7 13.807 12.05 24.293 25.5 24.293zm-17.99-110.279c-1.4 0-2.44-1.223-2.44-2.621l-.18-15.555c0-12.233.53-20.447 1.57-26.564 1.58-8.564 5.24-13.108 10.83-17.128.35-.349 1.05-.524 1.58-.524 1.57 0 2.44 1.398 2.44 2.622 0 .699-.35 1.573-1.05 2.097-5.06 3.67-7.33 6.291-8.73 13.806-1.05 5.768-1.4 14.331-1.4 27.614v13.632c0 1.398-1.22 2.621-2.62 2.621zm.35 23.419c-1.4 0-2.62-1.048-2.62-2.447v-12.408c0-1.224 1.22-2.272 2.45-2.272 1.39 0 2.62 1.223 2.62 2.621 0 5.243 0 7.515.17 12.059 0 1.399-1.22 2.447-2.62 2.447z"/><path d="m1169.85 437.666c13.8-.874 24.28-12.234 24.28-25.516l-.17-1.923c-1.23-21.496-1.92-45.789-1.92-70.082.87-1.398 1.57-3.146 2.09-4.893 2.8-9.612 9.61-28.138 21.66-28.138 6.99 0 13.46 7.69 13.46 20.448v84.063c0 14.157 11.52 25.691 25.67 25.691 14.16 0 25.51-11.36 25.51-25.341v-84.413c0-19.05-4.72-37.051-16.6-50.683-11.7-13.806-24.1-21.147-42.27-21.147-12.93 0-23.06 5.593-31.1 12.758-4.36-7.864-12.92-12.583-21.83-12.583h-1.4c-13.1.524-23.76 11.011-24.46 24.118-1.22 20.972-1.92 43.168-1.92 65.363 0 23.419.7 46.838 1.92 67.81.7 13.807 12.06 24.468 25.51 24.468zm27.25-160.088c-.7 0-1.4-.174-1.92-.699-.35-.524-.7-1.048-.7-1.747s.35-1.399.88-1.923c5.06-5.068 15.19-10.486 24.45-10.661 1.4 0 2.62 1.049 2.62 2.447s-1.05 2.622-2.44 2.622c-7.17.174-17.12 5.243-21.14 9.262-.53.525-1.05.699-1.75.699zm-44.89 50.508c-1.4 0-2.62-1.048-2.62-2.446-.18-8.564-.35-15.73-.35-21.672 0-9.262.35-15.904 1.39-21.147 1.93-8.738 6.29-13.282 13.46-16.428l1.04-.175c1.75 0 2.62 1.224 2.62 2.622 0 .874-.52 1.922-1.57 2.272-6.29 2.796-8.91 5.243-10.48 12.758-.87 4.544-1.22 10.836-1.22 19.924l.35 21.671c0 1.398-1.23 2.621-2.62 2.621zm-.53 23.594c-1.4 0-2.44-1.223-2.44-2.622.17-4.544.17-6.816.17-12.059.18-1.223 1.22-2.446 2.45-2.446h.17c1.57 0 2.62 1.223 2.62 2.621l-.35 12.059c0 1.398-1.05 2.447-2.62 2.447zm90.49 39.323h-.35c-1.39 0-2.44-1.049-2.44-2.447v-46.488c0-1.398 1.05-2.447 2.44-2.447h.35c1.4 0 2.27 1.223 2.27 2.447v46.488c0 1.223-1.04 2.447-2.27 2.447z"/><path d="m1385.94 506c30.23 0 59.92-27.264 63.24-71.305 2.27-29.187 3.85-58.373 3.85-87.734 0-22.545-.88-45.265-3.15-68.159-1.05-13.457-12.23-23.594-25.68-23.594-7.16.175-13.8 3.146-18.69 8.214-3.84-1.922-7.86-3.67-12.05-4.893-4.2-1.398-8.56-2.272-13.11-2.622-1.22 0-2.44 0-3.66-.175-12.23 0-24.11 3.671-33.2 10.312-26.55 19.399-33.54 51.906-33.54 85.286v1.049c0 22.895 5.42 42.818 16.77 58.722 11.53 15.904 30.4 26.565 50.31 26.565 8.04 0 14.85-1.923 20.97-4.894-2.27 20.972-11.53 22.021-12.06 22.021-12.4 0-17.12-5.418-17.12-5.418-4.89-5.068-11.53-7.69-18.16-7.69-6.64 0-13.28 2.622-18.35 7.69-4.89 4.894-7.33 11.535-7.33 18.001 0 6.641 2.62 13.457 7.86 18.526 0 0 21.14 20.098 53.1 20.098zm-58.87-195.041-.7-.175c-1.04-.524-1.74-1.573-1.74-2.621v-.699c7.51-25.342 27.07-44.916 49.96-45.09 1.4 0 2.62 1.223 2.62 2.621s-1.22 2.622-2.62 2.622c-19.92 0-37.91 17.651-44.9 41.42-.35 1.223-1.39 1.922-2.62 1.922zm51.89 75.5c-11.71 0-17.82-17.127-17.82-43.867 0-25.516 11.18-36.177 20.61-36.177 9.61 0 18.69 12.933 19.57 21.671.17.35.17.699.17 1.049l.18 20.448v8.563l-1.23 2.797c-3.49 8.738-9.78 25.516-21.48 25.516zm-59.75-53.13h-.35c-1.05-.349-1.92-1.398-1.92-2.621v-.524c.87-3.845 2.1-8.04 3.15-12.059.34-1.049 1.39-1.748 2.44-1.748h.18c1.57 0 2.44 1.223 2.44 2.796v.524c-1.22 3.845-2.27 7.865-3.14 11.535-.35 1.223-1.58 2.097-2.8 2.097zm69.35 63.092c-.87 0-1.57-.35-2.09-1.224l-.35-1.223c0-.874.52-1.748 1.4-2.272 7.33-4.195 14.67-15.555 16.59-22.196.35-1.048 1.22-1.922 2.27-1.922 1.58 0 2.8 1.048 2.8 2.447l-.18.873c-2.27 8.215-9.6 19.924-19.04 25.167-.35.175-.87.35-1.4.35zm-48.21 87.733c-.52 0-1.05-.175-1.57-.524-3.85-2.622-6.82-7.69-8.04-13.108-.35-1.573-.7-3.146-.7-4.893 0-4.02 1.4-8.04 4.89-11.011.53-.524 1.05-.699 1.75-.699 1.57.175 2.45 1.398 2.45 2.622 0 .699-.35 1.398-.88 1.922-2.09 1.923-3.14 4.369-3.14 7.34 0 1.224.17 2.447.52 3.671 1.05 4.194 3.85 8.388 6.12 9.961.7.525 1.05 1.398 1.05 2.098 0 .524-.18 1.048-.53 1.572-.35.699-1.22 1.049-1.92 1.049z"/><path d="m1555.22 437.666c19.92 0 38.96-10.661 50.49-26.565 11.35-15.904 16.59-35.827 16.59-58.722v-1.049c0-33.38-6.99-65.887-33.54-85.286-9.08-6.641-21.14-10.312-33.19-10.312l-3.67.175c-4.37.35-8.91 1.224-13.1 2.622-1.57.349-3.14.874-4.54 1.573.7-15.205 1.57-30.235 2.62-44.566l.17-2.622c0-13.981-11.35-25.516-25.68-25.516h-.87c-13.1.524-23.76 10.836-24.63 23.943-2.62 34.255-4.19 71.306-4.19 106.784 0 34.604 1.39 67.635 4.36 95.772.7 9.613 6.99 17.827 15.9 21.497 3.14 1.223 6.29 1.747 9.43 1.747 6.12 0 12.06-2.097 16.77-6.116 7.69 4.019 16.77 6.641 27.08 6.641zm-61.49-180.71c-1.57 0-2.62-1.224-2.62-2.797.52-21.321.87-33.73 2.79-41.944 1.93-8.389 5.59-12.933 11.36-16.778.35-.174.7-.349 1.22-.349h.18c1.57 0 2.62 1.223 2.62 2.621 0 .7-.35 1.573-1.23 2.098-5.24 3.32-7.51 5.942-9.08 13.457-1.75 7.515-2.27 19.749-2.8 41.07 0 1.398-1.04 2.622-2.44 2.622zm40.7 14.855c-.87 0-1.57-.349-2.09-1.049-.35-.524-.53-1.048-.53-1.398 0-.874.53-1.747 1.22-2.272 4.55-2.971 11.88-5.592 19.05-6.291h2.62c1.57 0 2.97.174 4.36.349 1.4.175 2.27 1.398 2.27 2.622v.349c-.34 1.224-1.39 2.097-2.62 2.097h-.52c-.87-.174-2.1-.174-3.14-.174-6.64 0-15.2 2.796-19.22 5.418-.35.349-.87.349-1.4.349zm-41.23 8.738c-1.39 0-2.44-1.223-2.44-2.621l.35-12.059c0-1.398 1.05-2.622 2.62-2.622 1.4 0 2.44 1.224 2.44 2.622l-.34 12.059c0 1.398-1.05 2.621-2.63 2.621zm59.4 105.91c-11.7 0-16.77-13.457-18.69-23.419-.7-13.282-.88-27.264-.88-41.42 2.97-7.515 8.39-15.205 16.78-15.205 8.9 0 21.31 11.01 21.31 41.944 0 28.313-9.09 38.1-18.52 38.1zm10.13 11.534c-.87 0-1.74-.524-2.27-1.223-.17-.349-.35-.874-.35-1.398 0-.874.53-1.573 1.22-2.097 7.17-4.719 13.63-16.603 15.2-23.244.18-1.224 1.23-2.098 2.45-2.098 1.4 0 2.62 1.224 2.62 2.622l-.18.524c-1.74 8.389-8.38 20.448-17.29 26.39-.35.35-.87.524-1.4.524z"/><path d="m1718.21 437.666c23.23 0 44.37-12.059 56.77-29.186 12.41-17.128 17.82-38.449 17.82-60.82 0-20.622-2.62-41.245-13.27-59.421-10.66-18.35-32.67-32.507-56.95-32.507-24.11 0-45.95 12.059-58.18 29.711-12.23 17.651-16.42 38.624-16.42 60.295 0 21.322 3.67 42.119 14.5 59.945 10.83 18.001 31.97 31.983 55.73 31.983zm-54.51-126.357-.69-.175c-1.23-.35-1.75-1.398-1.75-2.622v-.699c7.51-25.516 29-44.915 51.88-45.09 1.4 0 2.62 1.223 2.62 2.622 0 1.398-1.22 2.621-2.62 2.621-19.74 0-40 17.652-46.99 41.42-.35 1.224-1.22 1.923-2.45 1.923zm55.56 75.15c-14.15 0-20.09-21.846-20.09-40.721 0-18.7 6.29-38.799 22.18-38.799 14.33 0 20.09 20.623 20.09 39.847v.874c0 19.574-6.99 38.799-22.18 38.799zm-60.45-52.78h-.35c-1.22-.175-2.27-1.224-2.27-2.447v-.349c.35-3.845 1.23-8.215 1.92-12.234.18-1.224 1.23-2.097 2.45-2.097 1.4 0 2.62 1.223 2.62 2.621v.35c-.87 4.019-1.57 8.214-1.92 11.884-.18 1.398-1.22 2.272-2.45 2.272zm70.75 63.965c-.87 0-1.74-.524-2.27-1.398l-.17-1.049c0-1.048.52-1.922 1.57-2.447 8.73-4.194 15.72-14.331 18.17-25.865.17-1.224 1.22-2.097 2.44-2.097 1.4 0 2.45 1.223 2.45 2.621v.524c-2.62 12.758-10.13 24.293-20.96 29.361z"/><path d="m1929.41 437.666c2.8 0 5.77-.525 8.56-1.398 9.43-3.671 15.72-11.885 16.95-21.846 1.74-16.953 2.44-37.051 2.44-57.149 0-27.614-1.22-55.577-2.44-76.724-.88-13.282-11.53-23.943-25.16-24.292-6.11 0-12.4 2.097-17.12 6.466-2.79-1.922-6.11-3.32-9.26-4.369-4.37-1.398-8.56-2.097-13.27-2.447l-4.72-.349c-11.71.349-23.24 3.845-31.8 9.961-26.9 18.526-37.2 51.207-37.2 85.811 0 23.419 5.41 43.692 16.77 59.771 11.53 15.904 30.39 26.565 50.48 26.565 10.66 0 20.09-2.797 27.95-7.515 4.72 5.068 11.18 7.515 17.82 7.515zm-94.86-126.882-1.04-.174c-1.05-.35-1.75-1.399-1.75-2.447v-.699c7.51-25.516 27.25-44.741 49.79-45.265 1.39 0 2.79 1.573 2.79 2.971s-1.4 2.447-2.79 2.447c-19.74 0-37.91 17.651-44.73 41.594-.35.874-1.22 1.573-2.27 1.573zm50.66 75.675c-9.08 0-17.64-10.312-17.64-34.779 0-29.186 8.91-45.265 20.79-45.265 11.35 0 16.07 15.205 17.29 19.225l.35 33.905c-4.19 8.563-11 26.914-20.79 26.914zm-57.99-53.13-.88-.174c-1.05-.35-1.74-1.399-1.74-2.272v-.525c.69-4.019 1.74-8.389 3.31-12.233 0-1.049 1.05-1.748 2.1-1.748 1.4 0 2.62 1.223 2.62 2.447l-.17.699-2.8 11.884c-.35 1.223-1.4 1.922-2.44 1.922zm67.08 63.092c-.88 0-1.75-.35-2.1-1.399l-.35-1.223c0-.874.35-1.922 1.05-2.272 7.51-4.02 14.67-15.38 16.95-22.195.34-1.049 1.04-1.748 2.09-1.748 1.57 0 2.97 1.398 2.97 2.621l-.17.525c-2.45 8.563-9.61 20.098-19.22 25.341z"/><path d="m2015.01 437.666c13.63-.874 24.11-12.059 24.11-25.342l-.18-1.922c-.7-12.059-1.22-30.41-1.22-49.809l.17-19.574c2.45-4.02 6.47-10.136 10.84-16.253 4.54-6.117 11.18-15.38 17.99-15.38 1.92 0 3.32 1.049 4.19 2.971 4.02 8.564 12.93 13.807 22.36 13.807 3.67 0 7.34-.874 11.01-2.447 9.43-4.544 14.85-14.331 14.85-23.943 0-3.67-.88-7.34-2.45-10.486-9.61-19.05-28.3-30.41-52.41-30.41-10.83 0-20.26 3.496-27.77 7.865-4.72-6.991-12.76-11.185-21.32-11.185-13.1 0-24.1 9.961-25.33 23.069-2.44 21.496-3.49 51.906-3.49 80.218 0 20.798.52 40.372 1.4 54.703.7 13.632 12.05 24.118 25.68 24.118zm36.51-164.107c-.87 0-1.75-.525-2.27-1.398l-.35-1.224c0-.874.52-1.922 1.4-2.272 5.06-2.796 10.83-5.068 16.94-5.068h1.92c2.45.175 4.72.699 7.17 1.573 1.05.349 1.74 1.223 1.74 2.272l-.17 1.048c-.35 1.049-1.22 1.573-2.27 1.573l-1.22-.174c-2.28-.874-4.72-1.224-6.99-1.224-5.07 0-9.96 1.923-14.68 4.544zm-51.88 53.304c-1.4 0-2.45-1.223-2.45-2.622.35-21.321.87-34.079 2.97-42.818 2.27-8.563 6.99-12.933 14.15-15.554.35-.175.7-.175 1.05-.175 1.57 0 2.62 1.224 2.62 2.622 0 .874-.52 1.922-1.75 2.272-6.46 2.446-9.08 4.718-11 12.233s-2.45 20.099-2.97 41.42c0 1.573-1.05 2.622-2.62 2.622zm-1.58 23.594c-1.22-.175-2.27-1.224-2.27-2.622v-.175c.18-4.544.35-6.816.7-12.059.18-1.223 1.23-2.272 2.45-2.446 1.57 0 2.79 1.223 2.79 2.796-.52 5.243-.52 7.515-.87 12.059-.17 1.398-1.4 2.447-2.8 2.447z"/><path d="m2201.23 437.666c11.36 0 20.62-3.845 28.3-9.263 5.07 5.418 11.88 8.564 19.04 8.564 2.8 0 5.77-.525 8.56-1.573 9.79-3.496 16.6-12.584 16.95-22.895 1.4-23.244 1.92-51.556 1.92-81.442 0-39.148-.87-80.917-1.92-117.968-.18-14.156-11.71-25.341-25.68-25.341h-.87c-13.81.524-24.64 11.884-24.64 25.516v1.048c.53 14.856.88 30.585 1.05 46.489-2.09-.874-4.19-1.748-6.29-2.272-4.19-1.398-8.56-2.272-13.1-2.622-1.22 0-2.44 0-3.67-.175-12.23 0-24.11 3.671-33.19 10.312-26.55 19.399-33.54 51.906-33.54 85.286v1.049c0 22.895 5.42 42.818 16.77 58.722 11.53 15.904 30.4 26.565 50.31 26.565zm31.97-178.963c-1.4 0-2.62-1.048-2.62-2.446-.17-4.37-1.4-41.071-1.4-46.314v-.349c0-1.224 1.23-2.272 2.45-2.272h.35c1.22 0 2.27 1.223 2.27 2.446l1.4 46.314c0 1.398-1.05 2.621-2.45 2.621zm-81.93 52.256-.7-.175c-1.05-.524-1.75-1.573-1.75-2.621v-.699c7.52-25.342 27.08-44.916 49.97-45.09 1.39 0 2.62 1.223 2.62 2.621s-1.23 2.622-2.62 2.622c-19.92 0-37.91 17.651-44.9 41.42-.35 1.223-1.4 1.922-2.62 1.922zm51.88 75.5c-11.7 0-17.82-17.127-17.82-43.867 0-25.516 11.19-36.177 20.62-36.177 8.21 0 16.07 9.612 18.69 17.826 0 12.758 0 25.167-.17 36.876-3.32 8.739-9.61 25.342-21.32 25.342zm-59.74-53.13h-.35c-1.22-.349-1.92-1.398-1.92-2.446v-.699c.87-3.845 2.09-8.04 3.14-12.059.35-1.049 1.4-1.748 2.45-1.748h.17c1.57 0 2.45 1.223 2.45 2.796v.524c-1.22 3.845-2.27 7.865-3.15 11.535-.35 1.223-1.57 2.097-2.79 2.097zm69.35 63.092c-.87 0-1.57-.35-2.09-1.224l-.35-1.223c0-.874.52-1.748 1.39-2.272 7.34-4.195 14.68-15.555 16.6-22.196.35-1.048 1.22-1.922 2.27-1.922 1.57 0 2.8 1.048 2.8 2.447l-.18.873c-2.27 8.215-9.61 19.924-19.04 25.167-.35.175-.87.35-1.4.35z"/></g><g clip-path="url(#d)" fill="url(#c)"><path d="m512 228.949-329.897-208.949-8.236 13.0025c-13.593 21.4623-7.215 49.8808 14.248 63.4745l252.175 159.722c21.462 13.594 49.881 7.215 63.474-14.247z"/><path d="m78.5184 406.188c3.6553.774 7.8747 1.827 12.5004 3.164 21.3802 44.335 60.8672 86.293 86.7722 94.632-.219.003-.441.003-.666.002 10.808 3.611 36.221 3.27 51.411-26.977 5.11-12.547 7.648-44.776-23.077-73.32-9.942-9.344-37.008-30.988-65.741-42.815-8.991-14.544-21.684-44.88-.528-49.868 5.503-1.298 12.943-.668 21.401 1.381 24.808 52.428 61.455 88.156 86.958 95.472-.423.013-.857.018-1.302.015 10.85 3.877 36.348 4.07 51.538-26.178 9.422-22.374 4.647-76.647-89.827-114.747-9.244-16.142-22.401-48.369-1.074-48.144 9.811.104 23.906 2.745 38.985 7.712-1.138 63.444 44.419 86.488 70.542 90.157.487.069.978.09 1.466.066 16.27 1.37 46.506-5.36 49.991-43.182 1.562-17.717-11.18-61.283-74.637-93.814-33.478-17.49-108.897-40.238-142.747 8.688-6.611 9.099-18.283 34.504-12.08 63.329-27.54 1.905-79.4413 23.719-66.7253 95.732-26.8679.98-78.66173 19.337-70.893639 84.928 1.925569 11.296 9.193369 38.915 22.860039 59.024l47.9194-30.928c-11.3202-19.771-25.7778-58.316 6.9539-54.329z"/></g></svg>